<?xml version="1.0" encoding="UTF-8"?>
<svg version="1.1" xmlns="http://www.w3.org/2000/svg" width="1254" height="1254">
<path d="M0 0 C413.82 0 827.64 0 1254 0 C1254 413.82 1254 827.64 1254 1254 C840.18 1254 426.36 1254 0 1254 C0 840.18 0 426.36 0 0 Z " fill="#000000" transform="translate(0,0)"/>
<path d="M0 0 C25.67000953 -0.09363436 51.33999328 -0.16407263 77.01013947 -0.20724869 C88.93048325 -0.22783308 100.85072063 -0.25587459 112.77099609 -0.30175781 C123.16634016 -0.34175208 133.56160713 -0.36746274 143.957026 -0.37635398 C149.45622464 -0.38154745 154.9552028 -0.39366741 160.45433044 -0.42292023 C165.64176481 -0.45028859 170.82889013 -0.45840213 176.01638985 -0.45243073 C177.90927885 -0.45352146 179.80217936 -0.46134662 181.69500542 -0.4768219 C207.05073456 -0.67376646 229.15807299 6.69443004 247.8125 24.3125 C264.03914506 41.50250803 271.9386674 61.90132969 271.35546875 85.4296875 C270.83491429 96.35569349 268.25214291 107.35356419 263 117 C262.53078125 117.90621094 262.0615625 118.81242188 261.578125 119.74609375 C252.93215502 135.57645307 241.14146554 147.16764222 225.26708984 155.65087891 C224.66386398 155.97385452 224.06063812 156.29683014 223.43913269 156.6295929 C221.96019371 157.4211725 220.48020183 158.21078438 219 159 C219.64937027 159.64798758 219.64937027 159.64798758 220.31185913 160.30906582 C230.82966826 170.80482177 241.34473227 181.30332172 251.85671997 191.8049078 C256.9402353 196.8832597 262.02468684 201.96066767 267.11132812 207.03588867 C271.54316057 211.45777569 275.97325162 215.88139853 280.40123177 220.30714327 C282.74738607 222.65199023 285.09467974 224.99567807 287.44354248 227.33781242 C290.06102332 229.94808967 292.67541432 232.56142309 295.2890625 235.17553711 C296.46725555 236.34833725 296.46725555 236.34833725 297.66925049 237.54483032 C298.37603943 238.25299393 299.08282837 238.96115753 299.81103516 239.69078064 C300.43048004 240.30930373 301.04992493 240.92782682 301.68814087 241.56509304 C303 243 303 243 303 244 C279.99392973 248.10198026 250.71223301 252.54092905 230.34353137 238.34382403 C223.23649543 233.07453398 216.84229732 227.03828022 210.6171875 220.76953125 C210.03839749 220.18668664 209.45960749 219.60384204 208.86327839 219.00333548 C201.71148496 211.74767952 194.85590228 204.24069292 188.0891459 196.62682235 C182.25696042 190.07839045 176.23406945 183.71799016 170.19267821 177.36306536 C159.88364624 166.51270788 149.71748975 155.54391215 139.71263123 144.41246033 C135.8983629 140.17269002 132.09806908 135.96748449 128 132 C127.41887451 131.42934814 126.83774902 130.85869629 126.23901367 130.27075195 C125.72056885 129.76503662 125.20212402 129.25932129 124.66796875 128.73828125 C123.50775071 127.59641694 122.34759529 126.45448901 121.1875 125.3125 C120.59001953 124.73177734 119.99253906 124.15105469 119.37695312 123.55273438 C117.87985327 122.07274424 116.43511269 120.54017218 115 119 C115 118.34 115 117.68 115 117 C115.98590622 116.99857498 116.97181244 116.99714996 117.9875946 116.99568176 C127.32851887 116.97893311 136.66901187 116.93592113 146.00970745 116.86790943 C150.81065165 116.83377742 155.6112823 116.80855105 160.41235352 116.80444336 C165.05516235 116.80013063 169.6972655 116.77142416 174.33985329 116.72656822 C176.10140671 116.71368755 177.86304499 116.70925166 179.62463951 116.71384621 C192.56966178 116.73971905 205.43131984 115.89297582 215.2109375 106.17578125 C223.36028913 96.26488854 225.49345024 87.53798969 224.27587891 74.99560547 C223.65804996 70.52646052 222.29317878 66.8603041 220 63 C219.59910156 62.29746094 219.19820312 61.59492188 218.78515625 60.87109375 C213.79233586 53.24437971 205.65386202 48.45311152 197 46 C193.92886227 45.7852174 193.92886227 45.7852174 190.6987915 45.95031738 C188.82907433 46.00727531 188.82907433 46.00727531 186.92158508 46.06538391 C186.2557522 46.09059931 185.58991932 46.1158147 184.90390968 46.1417942 C181.99868048 46.25145976 179.09286291 46.33667858 176.18687487 46.42349625 C174.62078524 46.47040544 173.05473087 46.51850503 171.48871183 46.56771469 C161.3592515 46.88115777 151.22657962 47.02060873 141.09356165 47.16730785 C131.25874528 47.31051538 121.43296188 47.50715545 111.60400391 47.88232422 C46.49772241 50.31173871 46.49772241 50.31173871 29.13967514 35.20420074 C22.72073612 29.03759313 17.24703303 22.13310764 12.44696045 14.64904785 C10.31100256 11.32883548 7.85787871 8.73853472 5 6 C3.29569549 4.02975408 1.6548959 2.01242325 0 0 Z " fill="#07B3FB" transform="translate(491,403)"/>
<path d="M0 0 C21.61209136 -4.66469151 49.68623161 -8.87225861 69.45113099 3.66107488 C89.85565336 17.7012425 106.6766577 37.3194259 123.21044123 55.55968118 C130.17579912 63.22917512 137.33769385 70.70374837 144.51508987 78.17425036 C155.64318379 89.76727564 166.6658573 101.45304356 177.52514648 113.29833984 C178.06990946 113.88947634 178.61467243 114.48061283 179.17594337 115.08966255 C180.68223792 116.72622377 182.18156396 118.36884413 183.67845154 120.01400757 C184.51841895 120.93395697 185.35838636 121.85390636 186.22380733 122.80173302 C188 125 188 125 188 127 C166.38790864 131.66469151 138.31376839 135.87225861 118.54886901 123.33892512 C98.14434664 109.2987575 81.3233423 89.6805741 64.78955877 71.44031882 C57.82420088 63.77082488 50.66230615 56.29625163 43.48491013 48.82574964 C32.35681621 37.23272436 21.3341427 25.54695644 10.47485352 13.70166016 C9.93009054 13.11052366 9.38532757 12.51938717 8.82405663 11.91033745 C7.31776208 10.27377623 5.81843604 8.63115587 4.32154846 6.98599243 C3.48158105 6.06604303 2.64161364 5.14609364 1.77619267 4.19826698 C0 2 0 2 0 0 Z " fill="#038DF9" transform="translate(492,520)"/>
<path d="M0 0 C5.61 0 11.22 0 17 0 C17 32.01 17 64.02 17 97 C-0.82 97.0928125 -0.82 97.0928125 -19 97.1875 C-24.60742188 97.22846802 -24.60742188 97.22846802 -30.328125 97.27026367 C-34.92578125 97.28381348 -34.92578125 97.28381348 -37.08447266 97.28633118 C-38.5783151 97.29090996 -40.0721471 97.30140278 -41.56591797 97.31672668 C-52.74349306 97.42556788 -61.57421069 97.22984072 -70 89 C-75.44871434 81.29664524 -74.29094833 72.19477227 -74.35009766 63.15771484 C-74.36660424 61.31318498 -74.3938239 59.46871768 -74.43212891 57.62451172 C-74.85109797 37.3136203 -74.85109797 37.3136203 -69 30 C-63.3710545 24.61733049 -57.87085982 23.86907045 -50.17822266 23.88647461 C-48.49715927 23.88658791 -48.49715927 23.88658791 -46.78213501 23.88670349 C-45.58817108 23.89186478 -44.39420715 23.89702606 -43.1640625 23.90234375 C-41.92957367 23.9037587 -40.69508484 23.90517365 -39.42318726 23.90663147 C-35.49043325 23.91221728 -31.55773672 23.92476725 -27.625 23.9375 C-24.95442792 23.94308088 -22.28385637 23.94707942 -19.61328125 23.95117188 C-13.07549878 23.96218208 -6.53775912 23.97943703 0 24 C0 16.08 0 8.16 0 0 Z " fill="#F3F3F3" transform="translate(574,731)"/>
<path d="M0 0 C31.35 0 62.7 0 95 0 C95 0.66 95 1.32 95 2 C95.845625 2.04125 96.69125 2.0825 97.5625 2.125 C103.6263436 3.66852383 106.80579273 7.17432341 110.171875 12.3203125 C113.04189693 18.34901993 112.65831631 24.76584494 112.625 31.3125 C112.65722656 32.56740234 112.68945312 33.82230469 112.72265625 35.11523438 C112.73158927 43.68647075 111.27595581 50.10534619 106 57 C98.63397486 63.36284939 90.42606608 64.3413867 81 64 C84.67582897 68.33771457 88.45075794 72.50632215 92.5 76.5 C96.54839385 80.50028051 100.31435102 84.6667641 104 89 C105.06864367 90.24771004 106.13768126 91.49508276 107.20703125 92.7421875 C107.73401611 93.35690918 108.26100098 93.97163086 108.80395508 94.60498047 C109.1986499 95.06533691 109.59334473 95.52569336 110 96 C91.29778387 98.53490223 91.29778387 98.53490223 84.58349609 94.57470703 C80.27102451 90.89563896 76.86294594 86.50714546 73.50146484 81.96582031 C71.52895131 79.38327089 69.29211245 77.17146289 66.9375 74.9375 C63.27743318 71.39718997 63.27743318 71.39718997 61.81004333 69.29638672 C59.02994273 65.48942892 59.02994273 65.48942892 54.95768738 63.34364319 C52.57596378 63.09664126 50.27691874 63.05614292 47.8828125 63.09765625 C47.02565643 63.08536484 46.16850037 63.07307343 45.28536987 63.06040955 C42.56436621 63.02877358 39.84608624 63.04492752 37.125 63.0625 C35.27341241 63.0493854 33.42184416 63.03314274 31.5703125 63.01367188 C27.04523268 62.96704247 22.5269592 62.98512267 18 63 C18 73.89 18 84.78 18 96 C12.06 96 6.12 96 0 96 C0 80.16 0 64.32 0 48 C9.44173828 47.96132813 9.44173828 47.96132813 19.07421875 47.921875 C23.06188973 47.89670849 27.04948471 47.87037715 31.03710938 47.83984375 C37.36645804 47.79149082 43.69563081 47.74745303 50.02514648 47.72900391 C55.12818498 47.71385988 60.23076338 47.67945426 65.33359718 47.63169098 C67.28039361 47.61685394 69.22725572 47.60895766 71.17410851 47.60811615 C73.90132064 47.60575173 76.62725588 47.57871486 79.35424805 47.54589844 C80.15913666 47.5509288 80.96402527 47.55595917 81.79330444 47.56114197 C85.55534758 47.49110413 87.7844649 47.13527768 91.00091553 45.11651611 C93.42265561 42.55251645 93.63179141 41.42020509 93.62890625 37.9375 C93.63083984 36.97585938 93.63277344 36.01421875 93.63476562 35.0234375 C93.59899414 33.52683594 93.59899414 33.52683594 93.5625 32 C93.57893555 30.50339844 93.57893555 30.50339844 93.59570312 28.9765625 C93.70200649 23.60945789 93.70200649 23.60945789 91.49893188 18.88249207 C87.97736452 16.22962959 84.72105951 16.4353041 80.48364258 16.4699707 C79.62635056 16.46123932 78.76905853 16.45250793 77.88578796 16.44351196 C75.0551562 16.41913424 72.22525462 16.42254642 69.39453125 16.42578125 C67.42964936 16.41334016 65.46477862 16.39900707 63.49992371 16.38285828 C58.32998359 16.34480565 53.16023518 16.32963867 47.99017334 16.32006836 C39.70372831 16.30033229 31.41742968 16.24362686 23.13113976 16.19130516 C20.22997645 16.17590306 17.32888567 16.16875785 14.4276886 16.16316223 C12.6611833 16.15614977 10.89467835 16.14904915 9.12817383 16.1418457 C8.31518829 16.14237442 7.50220276 16.14290314 6.6645813 16.14344788 C1.11321736 16.11321736 1.11321736 16.11321736 0 15 C0 10.05 0 5.1 0 0 Z " fill="#F3F3F3" transform="translate(215,731)"/>
<path d="M0 0 C8.85829162 -0.11323729 17.71609777 -0.20485103 26.57495117 -0.25906086 C30.68907697 -0.285087 34.80267931 -0.32035526 38.91650391 -0.37719727 C42.89119567 -0.4317693 46.86538591 -0.461473 50.84042358 -0.47438622 C52.35224292 -0.48358126 53.86403671 -0.50153712 55.37564087 -0.52865028 C70.7543655 -0.79336949 70.7543655 -0.79336949 77 5 C81.56833704 9.80877583 83.25630281 14.20371622 83.22705078 20.80004883 C83.22689972 21.94085403 83.22674866 23.08165924 83.22659302 24.2570343 C83.21627045 25.47803329 83.20594788 26.69903229 83.1953125 27.95703125 C83.1924826 29.21513107 83.18965271 30.4732309 83.18673706 31.76945496 C83.17745121 35.10187382 83.15950476 38.43401547 83.1373291 41.76635742 C83.11681017 45.17168797 83.10772246 48.57704723 83.09765625 51.98242188 C83.0756164 58.65502418 83.0421539 65.32749609 83 72 C73.06411636 72.06957695 63.1282909 72.12285037 53.19221306 72.15543652 C48.57824968 72.17107796 43.96445325 72.19228842 39.35058594 72.22631836 C34.89613331 72.25896611 30.44184105 72.27686446 25.98727798 72.28463173 C24.28964845 72.29016552 22.59202748 72.30097173 20.8944664 72.31719017 C18.5126234 72.33903674 16.13143914 72.34196395 13.74951172 72.34057617 C13.05107651 72.351362 12.3526413 72.36214783 11.63304138 72.3732605 C7.02047161 72.34426933 3.91754464 71.41740952 0 69 C-6.25009161 62.46581332 -7.37049226 57.4896266 -7.29541016 48.60205078 C-7.12538751 41.73212591 -6.13270559 38.13270559 -1.1875 33.1875 C3.74617768 29.80164277 8.0657577 28.74701204 14.00537109 28.77294922 C15.16612152 28.77310028 16.32687195 28.77325134 17.52279663 28.77340698 C18.76050812 28.78372955 19.9982196 28.79405212 21.2734375 28.8046875 C23.19175888 28.80893234 23.19175888 28.80893234 25.14883423 28.81326294 C28.53220099 28.8225398 31.91529326 28.84047817 35.29858398 28.8626709 C38.75762574 28.88320959 42.21669596 28.89228174 45.67578125 28.90234375 C52.45059614 28.924368 59.22528224 28.95781882 66 29 C65.91266424 27.39482903 65.80447776 25.79078338 65.6875 24.1875 C65.62949219 23.29417969 65.57148438 22.40085937 65.51171875 21.48046875 C65.15760346 19.00443562 65.15760346 19.00443562 63.83403015 17.20280457 C61.18542823 15.46578269 59.12124223 15.59960692 55.96801758 15.56762695 C54.72695755 15.54783279 53.48589752 15.52803864 52.20722961 15.50764465 C50.85299837 15.50087491 49.49876547 15.49442804 48.14453125 15.48828125 C46.75874739 15.47143595 45.37297882 15.45328591 43.98722839 15.43388367 C40.34258808 15.38636062 36.69800977 15.35656656 33.05316162 15.33044434 C29.33284254 15.30065017 25.61273716 15.254116 21.89257812 15.20898438 C14.59513969 15.12292501 7.29773268 15.05713932 0 15 C0 10.05 0 5.1 0 0 Z " fill="#F8F8F8" transform="translate(376,755)"/>
<path d="M0 0 C5.61 0 11.22 0 17 0 C17 17.49 17 34.98 17 53 C30.10315091 53.38961184 30.10315091 53.38961184 38.97485352 47.64306641 C39.49877686 47.03897949 40.0227002 46.43489258 40.5625 45.8125 C41.172146 45.19552246 41.78179199 44.57854492 42.40991211 43.94287109 C44.95234418 41.36226828 47.38829373 38.70737033 49.7578125 35.96728516 C60.21374277 23.90252481 60.21374277 23.90252481 68.8359375 23.125 C74.26135619 22.98536409 79.61709226 23.32870412 85 24 C85 24.66 85 25.32 85 26 C83.49609375 27.48046875 83.49609375 27.48046875 81.4375 29.1875 C78.6746132 31.53279758 76.03320243 33.90829405 73.5 36.5 C70.46551634 39.58965609 67.2612454 42.41440192 63.98046875 45.23828125 C61.40930389 47.52545157 59.01948085 49.96754703 56.609375 52.421875 C54.53590299 54.45508542 52.31317144 56.2475974 50 58 C53.32499972 65.94711471 61.71877044 71.86355707 68.13671875 77.35546875 C70.60882778 79.53735115 72.89269421 81.88012926 75.19921875 84.234375 C77.78320878 86.76791837 80.5319601 89.09367175 83.30078125 91.421875 C85 93 85 93 87 96 C66.86877196 97.6360713 66.86877196 97.6360713 60.52734375 94.01953125 C58.09791576 91.47459955 56.05069368 88.85496985 54 86 C52.74786051 84.81109988 51.45692826 83.66127382 50.125 82.5625 C47.68189976 80.53710676 45.56911301 78.52320419 43.43359375 76.16015625 C38.47291592 70.80834474 34.77496262 67.57080429 27.29956055 66.8737793 C23.86710721 66.79127946 20.43244024 66.91695709 17 67 C17 76.57 17 86.14 17 96 C11.39 96 5.78 96 0 96 C0 64.32 0 32.64 0 0 Z " fill="#F6F6F6" transform="translate(954,731)"/>
<path d="M0 0 C1.19506668 -0.0159874 2.39013336 -0.03197479 3.62141418 -0.04844666 C5.5465107 -0.05649071 5.5465107 -0.05649071 7.51049805 -0.06469727 C8.85182286 -0.0736744 10.19314671 -0.08279643 11.5344696 -0.09205627 C14.34282862 -0.10851422 17.15106889 -0.11624035 19.95947266 -0.11914062 C23.54062849 -0.12451743 27.12065258 -0.16217951 30.70148945 -0.20788479 C33.47179639 -0.23777672 36.24183493 -0.24486679 39.01228905 -0.24586678 C40.96869805 -0.25206484 42.92498968 -0.28147287 44.88117981 -0.31138611 C52.20937548 -0.27440983 57.35469317 0.35253704 62.9597168 5.30639648 C67.52805383 10.11517231 69.21601961 14.51011271 69.18676758 21.10644531 C69.18661652 22.24725052 69.18646545 23.38805573 69.18630981 24.56343079 C69.17598724 25.78442978 69.16566467 27.00542877 69.1550293 28.26342773 C69.1521994 29.52152756 69.14936951 30.77962738 69.14645386 32.07585144 C69.137168 35.40827031 69.11922156 38.74041195 69.0970459 42.07275391 C69.07652696 45.47808445 69.06743925 48.88344371 69.05737305 52.28881836 C69.03533317 58.96143053 69.00081348 65.63387556 68.9597168 72.30639648 C63.3497168 72.30639648 57.7397168 72.30639648 51.9597168 72.30639648 C51.92998779 70.02040527 51.92998779 70.02040527 51.8996582 67.68823242 C51.82362357 62.03751008 51.73490251 56.38704596 51.64233398 50.73657227 C51.60403546 48.29033504 51.56918415 45.84404132 51.5378418 43.39770508 C51.49221075 39.88268842 51.43421223 36.36806094 51.3737793 32.85327148 C51.36222809 31.75835388 51.35067688 30.66343628 51.33877563 29.53533936 C51.31890594 28.51458313 51.29903625 27.4938269 51.27856445 26.44213867 C51.26524078 25.5450116 51.25191711 24.64788452 51.2381897 23.72357178 C50.9372506 21.11138741 50.42237877 19.4880601 48.9597168 17.30639648 C46.16897516 16.37614927 44.43888405 16.17051469 41.55175781 16.14526367 C40.66396133 16.13565613 39.77616486 16.12604858 38.86146545 16.1161499 C37.90517746 16.11190002 36.94888947 16.10765015 35.96362305 16.10327148 C34.97853256 16.09757141 33.99344208 16.09187134 32.97850037 16.08599854 C30.89469476 16.07655214 28.81087424 16.07001599 26.72705078 16.06616211 C23.53806599 16.05644478 20.34972252 16.02541303 17.16088867 15.99389648 C15.13680396 15.98736747 13.11271464 15.9821166 11.08862305 15.97827148 C9.6572274 15.95975128 9.6572274 15.95975128 8.19691467 15.94085693 C7.30596603 15.94385803 6.4150174 15.94685913 5.49707031 15.94995117 C4.32483665 15.94448273 4.32483665 15.94448273 3.12892151 15.93890381 C0.28625329 16.42049033 -1.03311536 17.23897319 -3.0402832 19.30639648 C-3.65630816 21.73571729 -3.65630816 21.73571729 -3.58618164 24.51220703 C-3.61575958 26.10351692 -3.61575958 26.10351692 -3.64593506 27.72697449 C-3.6471637 28.87080093 -3.64839233 30.01462738 -3.6496582 31.19311523 C-3.66619446 32.36526077 -3.68273071 33.53740631 -3.69976807 34.74507141 C-3.74841488 38.49473218 -3.7696569 42.24398691 -3.7902832 45.99389648 C-3.81842878 48.53363064 -3.8483542 51.07334574 -3.88012695 53.61303711 C-3.95417889 59.8441235 -4.00365197 66.07498226 -4.0402832 72.30639648 C-9.6502832 72.30639648 -15.2602832 72.30639648 -21.0402832 72.30639648 C-21.13096575 65.01272962 -21.20421739 57.71937528 -21.24753189 50.42526245 C-21.26832992 47.0376069 -21.29650207 43.65035992 -21.34204102 40.26293945 C-21.39073013 36.36065002 -21.41329249 32.45893497 -21.4309082 28.55639648 C-21.45155334 27.35088135 -21.47219849 26.14536621 -21.49346924 24.90332031 C-21.49545472 17.40774605 -20.97186303 11.52155843 -15.62799072 5.79223633 C-10.78471458 1.47090755 -6.38443921 0.06479158 0 0 Z " fill="#F7F6F7" transform="translate(844.040283203125,754.693603515625)"/>
<path d="M0 0 C5.61 0 11.22 0 17 0 C17.01458252 2.21549561 17.02916504 4.43099121 17.04418945 6.71362305 C17.09455206 14.03793718 17.16115008 21.36203909 17.23571491 28.68614483 C17.28042084 33.12627532 17.31967643 37.566314 17.34643555 42.0065918 C17.37246639 46.29263361 17.41286708 50.57832221 17.46318626 54.86414528 C17.47985649 56.49833593 17.49136982 58.13258768 17.49761391 59.76685143 C17.50725352 62.05807804 17.5353096 64.3484007 17.56762695 66.6394043 C17.57873001 67.94290329 17.58983307 69.24640228 17.60127258 70.58940125 C18.02633361 74.22525006 18.74273746 76.14189878 21 79 C24.38222132 80.12740711 27.01638703 80.15917691 30.58276367 80.20532227 C31.57828499 80.22017166 31.57828499 80.22017166 32.59391785 80.23532104 C34.78523199 80.2668809 36.97656781 80.29167155 39.16796875 80.31640625 C40.68826355 80.33698055 42.20855269 80.35797715 43.72883606 80.37937927 C47.72858087 80.43455084 51.72837689 80.48398175 55.72821045 80.53222656 C59.81038974 80.5824775 63.89249474 80.63814481 67.97460938 80.69335938 C75.98301179 80.80088084 83.99147738 80.90183855 92 81 C92 85.95 92 90.9 92 96 C81.96825129 96.11317406 71.93692984 96.20481548 61.90468597 96.25906086 C57.24578543 96.28510219 52.58734609 96.32039962 47.92871094 96.37719727 C43.42883298 96.43171307 38.9293973 96.4614616 34.42921448 96.47438622 C32.71644635 96.48359113 31.00370115 96.50156637 29.29112244 96.52865028 C13.08533403 96.77463711 13.08533403 96.77463711 7.35461426 92.326828 C3.05655874 88.1169355 0.16626128 84.48453123 -0.24050903 78.40594482 C-0.24629051 76.94348599 -0.24102709 75.48095816 -0.22705078 74.01855469 C-0.22734283 73.2181778 -0.22763489 72.4178009 -0.22793579 71.59317017 C-0.22654455 68.95262744 -0.21099308 66.31236832 -0.1953125 63.671875 C-0.19158164 61.83913324 -0.18873501 60.00638949 -0.18673706 58.17364502 C-0.17910637 53.35345946 -0.15946269 48.53339471 -0.1373291 43.71325684 C-0.11685855 38.79322952 -0.10773275 33.87318265 -0.09765625 28.953125 C-0.07621628 19.30202175 -0.0410387 9.65103983 0 0 Z " fill="#F9F9F9" transform="translate(634,731)"/>
<path d="M0 0 C1.56116547 0.00045319 1.56116547 0.00045319 3.15386963 0.00091553 C4.8290567 0.03188324 4.8290567 0.03188324 6.53808594 0.06347656 C8.26088776 0.07196625 8.26088776 0.07196625 10.01849365 0.08062744 C13.68690668 0.10301825 17.3543431 0.15322215 21.02246094 0.20410156 C23.509426 0.22416295 25.99640637 0.24241435 28.48339844 0.25878906 C34.58043155 0.29949022 40.67535313 0.37778172 46.77246094 0.45410156 C46.77246094 14.31410156 46.77246094 28.17410156 46.77246094 42.45410156 C39.43975287 42.52294131 32.10816428 42.58268645 24.77539062 42.61889648 C22.28056033 42.63399011 19.78575659 42.65446704 17.29101562 42.68041992 C13.70663908 42.71677696 10.12261312 42.73382234 6.53808594 42.74707031 C5.42129456 42.76255417 4.30450317 42.77803802 3.15386963 42.79399109 C2.11309265 42.79421768 1.07231567 42.79444427 0 42.79467773 C-0.91489197 42.80133957 -1.82978394 42.8080014 -2.7723999 42.81486511 C-5.74667371 42.37781878 -7.10518957 41.56551464 -9.22753906 39.45410156 C-9.63358396 36.71617143 -9.78885315 34.3840511 -9.75878906 31.64550781 C-9.76261597 30.88237778 -9.76644287 30.11924774 -9.77038574 29.33299255 C-9.77310604 27.71994711 -9.7657364 26.10685764 -9.74902344 24.49389648 C-9.72764186 22.02845463 -9.74880259 19.56593623 -9.77441406 17.10058594 C-9.77177023 15.53222014 -9.76664409 13.96385616 -9.75878906 12.39550781 C-9.76688599 11.65998184 -9.77498291 10.92445587 -9.7833252 10.16664124 C-9.72337855 6.88257523 -9.5641845 4.88789471 -7.52191162 2.25627136 C-4.75502557 0.08295454 -3.47915038 -0.03377816 0 0 Z " fill="#030303" transform="translate(527.2275390625,769.5458984375)"/>
<path d="M0 0 C5.61 0 11.22 0 17 0 C17 23.76 17 47.52 17 72 C11.39 72 5.78 72 0 72 C0 48.24 0 24.48 0 0 Z " fill="#F8F8F8" transform="translate(765,755)"/>
<path d="M0 0 C1.56116547 0.00045319 1.56116547 0.00045319 3.15386963 0.00091553 C4.8290567 0.03188324 4.8290567 0.03188324 6.53808594 0.06347656 C8.26088776 0.07196625 8.26088776 0.07196625 10.01849365 0.08062744 C13.68690668 0.10301825 17.3543431 0.15322215 21.02246094 0.20410156 C23.509426 0.22416295 25.99640637 0.24241435 28.48339844 0.25878906 C34.58012891 0.30289232 40.67612934 0.37194076 46.77246094 0.45410156 C46.77246094 5.40410156 46.77246094 10.35410156 46.77246094 15.45410156 C39.60089403 15.57774271 32.42994813 15.66846335 25.25756836 15.72875977 C22.8180053 15.75389653 20.37851749 15.78801103 17.93920898 15.83129883 C14.43161448 15.89198385 10.92501604 15.92032056 7.41699219 15.94238281 C6.32723587 15.96818924 5.23747955 15.99399567 4.11470032 16.02058411 C-3.45053282 16.02338327 -3.45053282 16.02338327 -7.42016602 13.11499023 C-9.22753906 10.45410156 -9.22753906 10.45410156 -9.79003906 7.39160156 C-8.71502612 1.77764506 -5.47112477 -0.05311772 0 0 Z " fill="#111010" transform="translate(395.2275390625,797.5458984375)"/>
<path d="M0 0 C5.61 0 11.22 0 17 0 C17 5.28 17 10.56 17 16 C11.39 16 5.78 16 0 16 C0 10.72 0 5.44 0 0 Z " fill="#09CFF5" transform="translate(765,731)"/>
<path d="M0 0 C65.67 0 131.34 0 199 0 C199 0.33 199 0.66 199 1 C189.43782118 1.18653667 179.87529454 1.3489136 170.3125 1.5 C169.55690292 1.51202454 168.80130585 1.52404907 168.02281189 1.53643799 C144.11792572 1.91244257 120.21638038 2.04163685 96.30859375 2.03125 C94.9888386 2.03074142 93.66908344 2.03023285 92.30933571 2.02970886 C78.95044692 2.02354584 65.59160804 2.00468398 52.23275852 1.97194672 C47.17262221 1.96025378 42.11248349 1.95215427 37.05233955 1.94456482 C33.51883391 1.93762898 29.98537762 1.92501388 26.45188904 1.91223145 C24.31851244 1.90864122 22.18513535 1.90532892 20.05175781 1.90234375 C19.08507329 1.89717995 18.11838877 1.89201614 17.12241077 1.88669586 C16.23665206 1.88662285 15.35089334 1.88654984 14.43829346 1.88647461 C13.67269733 1.884254 12.90710121 1.88203339 12.11830521 1.87974548 C9.96348896 2.0020727 8.07087909 2.40744107 6 3 C6.66 4.65 7.32 6.3 8 8 C6.85073734 7.04578192 5.70569459 6.08647955 4.5625 5.125 C3.92441406 4.59132813 3.28632813 4.05765625 2.62890625 3.5078125 C1 2 1 2 0 0 Z " fill="#088BF9" transform="translate(491,403)"/>
<path d="M0 0 C3.42009706 1.14003235 4.28869442 2.22170198 6.5625 4.9375 C8.33130568 7.03343963 10.05994888 9.05994888 12 11 C15.0097091 11.2475601 17.93331029 11.37126436 20.94775391 11.41064453 C21.87463516 11.43044373 22.80151642 11.45024292 23.75648499 11.47064209 C26.82973912 11.53397477 29.90305517 11.58342637 32.9765625 11.6328125 C35.10364416 11.67394279 37.23070931 11.7159355 39.35775757 11.75875854 C44.96360933 11.86929116 50.56960972 11.96806901 56.17572021 12.06445312 C61.89332346 12.16481698 67.61071016 12.27622353 73.328125 12.38671875 C84.55189846 12.60199319 95.77585973 12.80485807 107 13 C107 13.33 107 13.66 107 14 C94.69099116 14.27890217 82.38274214 14.49168895 70.07120895 14.62174606 C64.35329796 14.68419172 58.63755923 14.76878186 52.92089844 14.90527344 C47.39638426 15.03634119 41.87394928 15.10754804 36.34799957 15.13852692 C34.2475233 15.16058111 32.14715205 15.20365197 30.04756927 15.26876068 C11.88026212 15.80936593 11.88026212 15.80936593 5.20744705 9.62468338 C2.93186816 7.19950783 0.93348025 4.70694909 -1 2 C-0.67 1.34 -0.34 0.68 0 0 Z " fill="#0581EA" transform="translate(524,434)"/>
<path d="M0 0 C3.43752007 1.5277867 6.18953688 3.50181056 9 6 C9 6.66 9 7.32 9 8 C9.66 8 10.32 8 11 8 C11 8.66 11 9.32 11 10 C11.66 10 12.32 10 13 10 C14.35386936 11.65002828 15.68678142 13.3174387 17 15 C20.09910704 16.54955352 23.36380247 16.09999852 26.76171875 16.0625 C27.54456741 16.05871338 28.32741608 16.05492676 29.13398743 16.05102539 C32.47944704 16.03476788 35.82478372 16.00712638 39.17016602 15.97949219 C49.83568375 15.89894172 60.36706809 16.10619129 71 17 C71.33 15.35 71.66 13.7 72 12 C71.195625 11.38125 70.39125 10.7625 69.5625 10.125 C67 8 67 8 66 6 C70.29601124 6.48179565 72.33089939 8.99554557 75.25 12 C76.58804688 13.36125 76.58804688 13.36125 77.953125 14.75 C80 17 80 17 80 18 C72.08051527 18.39781287 64.16533865 18.69779391 56.23826694 18.88080692 C52.55486244 18.96875848 48.87838672 19.08743023 45.19897461 19.2824707 C19.53180726 20.60856824 19.53180726 20.60856824 11.17138672 14.17529297 C6.90578421 10.23818402 3.09925156 5.92055512 0 1 C0 0.67 0 0.34 0 0 Z " fill="#08DFF8" transform="translate(714,629)"/>
<path d="M0 0 C20.79 0 41.58 0 63 0 C57.74331139 5.25668861 43.38096579 3.12258441 36.10839844 3.13812256 C34.42512849 3.13718287 32.74185869 3.13458574 31.05859375 3.13037109 C28.4765044 3.12495068 25.89458451 3.13038055 23.3125 3.13671875 C21.65624962 3.13605887 19.99999934 3.13477959 18.34375 3.1328125 C17.57913452 3.13483673 16.81451904 3.13686096 16.0267334 3.13894653 C12.22658645 3.12227361 8.69433234 2.9181127 5 2 C4.67 2.99 4.34 3.98 4 5 C2 3.625 2 3.625 0 2 C0 1.34 0 0.68 0 0 Z " fill="#0266CD" transform="translate(492,520)"/>
<path d="M0 0 C0.33 0 0.66 0 1 0 C1 16.83 1 33.66 1 51 C0.01 51 -0.98 51 -2 51 C-2.05064156 44.21902652 -2.08570883 37.43810167 -2.10986328 30.65698242 C-2.11993107 28.3493467 -2.13358623 26.04172375 -2.15087891 23.73413086 C-2.17509287 20.42037809 -2.18647526 17.10679374 -2.1953125 13.79296875 C-2.20563507 12.7585112 -2.21595764 11.72405365 -2.22659302 10.6582489 C-2.22674408 9.6974794 -2.22689514 8.7367099 -2.22705078 7.74682617 C-2.231492 6.90077316 -2.23593323 6.05472015 -2.24050903 5.18302917 C-2 3 -2 3 0 0 Z " fill="#111112" transform="translate(895,776)"/>
<path d="M0 0 C5.61 0 11.22 0 17 0 C17 0.33 17 0.66 17 1 C11.555 1.495 11.555 1.495 6 2 C6.020625 3.60875 6.04125 5.2175 6.0625 6.875 C6.125 11.75 6.125 11.75 5 14 C8.96 14.33 12.92 14.66 17 15 C17 15.33 17 15.66 17 16 C11.39 16 5.78 16 0 16 C0 10.72 0 5.44 0 0 Z " fill="#026AD8" transform="translate(765,731)"/>
<path d="M0 0 C0.33 0 0.66 0 1 0 C1.33 5.94 1.66 11.88 2 18 C2.33 18 2.66 18 3 18 C3.02888514 21.14581423 3.04675923 24.29159469 3.0625 27.4375 C3.07087891 28.33533203 3.07925781 29.23316406 3.08789062 30.15820312 C3.09111328 31.01220703 3.09433594 31.86621094 3.09765625 32.74609375 C3.10289307 33.53685303 3.10812988 34.3276123 3.11352539 35.14233398 C3 37 3 37 2 38 C1.76472227 40.34987262 1.58613583 42.70556039 1.4375 45.0625 C1.293125 47.351875 1.14875 49.64125 1 52 C5.95 52 10.9 52 16 52 C16 52.33 16 52.66 16 53 C10.72 53 5.44 53 0 53 C0 35.51 0 18.02 0 0 Z " fill="#201F1F" transform="translate(971,731)"/>
<path d="M0 0 C16.83 0 33.66 0 51 0 C51 0.33 51 0.66 51 1 C22.79004251 2.14768925 22.79004251 2.14768925 12.50390625 1.9375 C10.16253826 1.99594288 8.23366698 2.32409132 6 3 C6.66 4.65 7.32 6.3 8 8 C6.85073734 7.04578192 5.70569459 6.08647955 4.5625 5.125 C3.92441406 4.59132813 3.28632813 4.05765625 2.62890625 3.5078125 C1 2 1 2 0 0 Z " fill="#0565F8" transform="translate(491,403)"/>
<path d="M0 0 C0.99 0.33 1.98 0.66 3 1 C3 1.66 3 2.32 3 3 C-17.46 3 -37.92 3 -59 3 C-59 2.67 -59 2.34 -59 2 C-42.90041242 1.25605937 -26.85726978 0.88878322 -10.74389648 1.03710938 C-9.48520752 1.04548828 -8.22651855 1.05386719 -6.9296875 1.0625 C-5.80804199 1.07410156 -4.68639648 1.08570313 -3.53076172 1.09765625 C-1.06294812 1.28938666 -1.06294812 1.28938666 0 0 Z " fill="#04B7FA" transform="translate(677,644)"/>
<path d="M0 0 C2.90543872 1.31376917 4.96661059 2.72056492 7.20800781 4.98095703 C8.10848846 5.88166428 8.10848846 5.88166428 9.02716064 6.80056763 C9.980513 7.76940384 9.980513 7.76940384 10.953125 8.7578125 C11.61334656 9.42086395 12.27356812 10.08391541 12.95379639 10.76705933 C15.05727824 12.88171832 17.15369142 15.00323212 19.25 17.125 C20.67662261 18.56165557 22.10370072 19.99785898 23.53125 21.43359375 C27.02613661 24.95050804 30.51470062 28.47358547 34 32 C33.505 32.99 33.505 32.99 33 34 C32.19780029 33.18732666 31.39560059 32.37465332 30.5690918 31.53735352 C27.59418893 28.52627629 24.61269303 25.52180178 21.62915039 22.51928711 C20.33827539 21.21834871 19.04920036 19.91562171 17.76196289 18.61108398 C15.9124115 16.73729955 14.05650249 14.87002274 12.19921875 13.00390625 C11.62411057 12.41847549 11.04900238 11.83304474 10.45646667 11.22987366 C7.17155255 7.94317724 7.17155255 7.94317724 3 6 C2.3125 3.9375 2.3125 3.9375 2 2 C1.34 2 0.68 2 0 2 C0 1.34 0 0.68 0 0 Z " fill="#08CDE8" transform="translate(744,598)"/>
<path d="M0 0 C1.98 0 3.96 0 6 0 C7.51403812 4.84492197 6.36602172 8.2591011 5 13 C2.69 13.33 0.38 13.66 -2 14 C-1.34 13.67 -0.68 13.34 0 13 C0 8.71 0 4.42 0 0 Z " fill="#06A9FA" transform="translate(770,732)"/>
<path d="M0 0 C12.54 0 25.08 0 38 0 C36 2 36 2 32.83544922 2.13525391 C31.49148742 2.09292823 30.14785266 2.0392693 28.8046875 1.9765625 C28.09724396 1.95153656 27.38980042 1.92651062 26.66091919 1.90072632 C24.39846281 1.8184671 22.13687194 1.7219031 19.875 1.625 C18.34248342 1.56676631 16.80993119 1.5094629 15.27734375 1.453125 C11.5177302 1.31288005 7.758831 1.15980243 4 1 C6.475 4.465 6.475 4.465 9 8 C6 8 6 8 4.39453125 6.7578125 C3.87246094 6.21898437 3.35039063 5.68015625 2.8125 5.125 C2.28269531 4.59132813 1.75289062 4.05765625 1.20703125 3.5078125 C0 2 0 2 0 0 Z " fill="#02AFFD" transform="translate(607,521)"/>
<path d="M0 0 C0 3 0 3 -1.875 5.3125 C-6.56506764 9.69524127 -12.17651036 13.70791486 -18.625 14.375 C-19.40875 14.25125 -20.1925 14.1275 -21 14 C-21.33 13.34 -21.66 12.68 -22 12 C-20.49759766 11.45472656 -20.49759766 11.45472656 -18.96484375 10.8984375 C-11.61430151 8.14717392 -5.58500398 5.72122359 0 0 Z " fill="#09ACDC" transform="translate(707,508)"/>
<path d="M0 0 C5.61 0 11.22 0 17 0 C17 0.33 17 0.66 17 1 C11.555 1.495 11.555 1.495 6 2 C6.020625 3.60875 6.04125 5.2175 6.0625 6.875 C6.125 11.75 6.125 11.75 5 14 C4.34 14 3.68 14 3 14 C3 10.04 3 6.08 3 2 C2.01 1.67 1.02 1.34 0 1 C0 0.67 0 0.34 0 0 Z " fill="#0488E5" transform="translate(765,731)"/>
<path d="M0 0 C0.66 0 1.32 0 2 0 C3.4453125 1.50390625 3.4453125 1.50390625 5.125 3.5625 C7.60828552 6.49494527 10.12702421 9.08340337 13.0625 11.5625 C16.82199278 14.74304555 19.88777538 18.18752484 23 22 C22.67 22.66 22.34 23.32 22 24 C18.86050859 20.90984779 15.72756243 17.81325304 12.60058594 14.71044922 C11.5353174 13.65525491 10.46826303 12.60186036 9.39941406 11.55029297 C7.86573784 10.04080273 6.33854432 8.52501301 4.8125 7.0078125 C3.89082031 6.09660645 2.96914063 5.18540039 2.01953125 4.24658203 C0 2 0 2 0 0 Z " fill="#08C7F4" transform="translate(691,605)"/>
<path d="M0 0 C0.33 0 0.66 0 1 0 C1.25614579 3.22761633 1.47509667 6.45673361 1.6875 9.6875 C1.76033203 10.59951172 1.83316406 11.51152344 1.90820312 12.45117188 C2.16023078 16.52808987 2.27868548 19.32223018 0.70703125 23.14453125 C0.14371094 23.75683594 -0.41960938 24.36914062 -1 25 C-1.99 25 -2.98 25 -4 25 C-2.125 18.125 -2.125 18.125 -1 17 C-0.76298761 14.14122091 -0.57780818 11.30116703 -0.4375 8.4375 C-0.39431641 7.63119141 -0.35113281 6.82488281 -0.30664062 5.99414062 C-0.20024738 3.99631195 -0.09959112 1.9981793 0 0 Z " fill="#05A5CD" transform="translate(716,477)"/>
<path d="M0 0 C4.08081763 0.52414171 5.95260664 2.61118856 8.75 5.5 C9.94882812 6.72203125 9.94882812 6.72203125 11.171875 7.96875 C13 10 13 10 13 11 C10.36 11 7.72 11 5 11 C5.33 9.35 5.66 7.7 6 6 C5.195625 5.38125 4.39125 4.7625 3.5625 4.125 C1 2 1 2 0 0 Z " fill="#09D9E9" transform="translate(780,635)"/>
<path d="M0 0 C3.39815137 1.13271712 4.28644916 2.1909314 6.5625 4.875 C7.16191406 5.57367188 7.76132812 6.27234375 8.37890625 6.9921875 C10 9 10 9 12 12 C9 12 9 12 6.51953125 9.8125 C5.62621094 8.884375 4.73289062 7.95625 3.8125 7 C2.91144531 6.071875 2.01039063 5.14375 1.08203125 4.1875 C0.39496094 3.465625 -0.29210937 2.74375 -1 2 C-0.67 1.34 -0.34 0.68 0 0 Z " fill="#0260D5" transform="translate(524,434)"/>
<path d="M0 0 C0.66 0.33 1.32 0.66 2 1 C-2 7.57142857 -2 7.57142857 -6 9 C-6 9.66 -6 10.32 -6 11 C-6.66 11 -7.32 11 -8 11 C-6.60366572 6.55711819 -4.39598172 4.13475236 -1 1 C-0.67 0.67 -0.34 0.34 0 0 Z " fill="#E2E2E3" transform="translate(510,757)"/>
<path d="M0 0 C-1.59043379 5.08938811 -4.7446951 8.87456643 -8 13 C-8.33 12.01 -8.66 11.02 -9 10 C-8.67 9.34 -8.34 8.68 -8 8 C-7.34 8 -6.68 8 -6 8 C-5.896875 7.236875 -5.79375 6.47375 -5.6875 5.6875 C-4.83195622 2.34310158 -3.70341243 0 0 0 Z " fill="#06CEEB" transform="translate(751,524)"/>
<path d="M0 0 C5.61 0 11.22 0 17 0 C16.67 0.66 16.34 1.32 16 2 C11.83861737 2.08159574 8.0527516 1.98248524 4 1 C3.67 1.99 3.34 2.98 3 4 C2.01 3.34 1.02 2.68 0 2 C0 1.34 0 0.68 0 0 Z " fill="#016EF4" transform="translate(493,521)"/>
<path d="M0 0 C0.66 0 1.32 0 2 0 C4.21854707 4.62197306 5.38281159 7.76824163 5 13 C4.896875 12.360625 4.79375 11.72125 4.6875 11.0625 C4.460625 10.381875 4.23375 9.70125 4 9 C3.01 8.67 2.02 8.34 1 8 C0.67 5.36 0.34 2.72 0 0 Z " fill="#0AC2ED" transform="translate(714,468)"/>
<path d="M0 0 C0.99 0.33 1.98 0.66 3 1 C3 1.66 3 2.32 3 3 C-3.6 3 -10.2 3 -17 3 C-15 1 -15 1 -11.77734375 0.83984375 C-10.51019531 0.87207031 -9.24304688 0.90429688 -7.9375 0.9375 C-5.62553635 0.99148494 -3.31250329 1.02046463 -1 1 C-0.67 0.67 -0.34 0.34 0 0 Z " fill="#05B4EC" transform="translate(677,644)"/>
<path d="M0 0 C0.33 0.99 0.66 1.98 1 3 C0.38125 3.5775 -0.2375 4.155 -0.875 4.75 C-3.06079584 6.82232439 -3.06079584 6.82232439 -4 9.1875 C-5 11 -5 11 -7.125 11.75 C-8.053125 11.87375 -8.053125 11.87375 -9 12 C-6.2520787 7.72545575 -3.30749011 3.85873847 0 0 Z " fill="#001A22" transform="translate(745,533)"/>
<path d="M0 0 C2.31 0 4.62 0 7 0 C7 1.32 7 2.64 7 4 C7.2981424 5.34164079 7.62243192 6.67851173 8 8 C6.85073734 7.04578192 5.70569459 6.08647955 4.5625 5.125 C3.92441406 4.59132813 3.28632813 4.05765625 2.62890625 3.5078125 C1 2 1 2 0 0 Z " fill="#044DD3" transform="translate(491,403)"/>
<path d="M0 0 C0.33 0.99 0.66 1.98 1 3 C-4.75 8 -4.75 8 -7 8 C-7 8.66 -7 9.32 -7 10 C-7.99 9.67 -8.98 9.34 -10 9 C-6.7 6.03 -3.4 3.06 0 0 Z " fill="#161616" transform="translate(1028,766)"/>
<path d="M0 0 C1.32 0 2.64 0 4 0 C5.484375 1.53125 5.484375 1.53125 6.75 3.5 C7.39195312 4.47453125 7.39195312 4.47453125 8.046875 5.46875 C8.36140625 5.9740625 8.6759375 6.479375 9 7 C6 7 6 7 4.39453125 5.46875 C3.87246094 4.8190625 3.35039063 4.169375 2.8125 3.5 C2.28269531 2.8503125 1.75289062 2.200625 1.20703125 1.53125 C0.80871094 1.0259375 0.41039062 0.520625 0 0 Z " fill="#0589DB" transform="translate(607,522)"/>
<path d="M0 0 C0.66 0 1.32 0 2 0 C0.66629231 3.59075147 -0.80987082 6.84621398 -3 10 C-3.99 10.33 -4.98 10.66 -6 11 C-6 8 -6 8 -4.125 6.0625 C-3.42375 5.381875 -2.7225 4.70125 -2 4 C-0.76487921 1.86690808 -0.76487921 1.86690808 0 0 Z " fill="#212121" transform="translate(324,781)"/>
<path d="M0 0 C3.7952131 1.49097658 5.61042731 3.75700849 8 7 C4.0521912 7 2.81491174 5.66275435 0 3 C0 2.01 0 1.02 0 0 Z " fill="#06BFE8" transform="translate(727,581)"/>
<path d="M0 0 C1.17539996 0.92652701 2.34010577 1.86663387 3.5 2.8125 C4.1496875 3.33457031 4.799375 3.85664062 5.46875 4.39453125 C7 6 7 6 7 9 C5.82460004 8.07347299 4.65989423 7.13336613 3.5 6.1875 C2.52546875 5.40439453 2.52546875 5.40439453 1.53125 4.60546875 C0 3 0 3 0 0 Z " fill="#000513" transform="translate(506,536)"/>
<path d="M0 0 C0.598125 0.226875 1.19625 0.45375 1.8125 0.6875 C-2.8125 5.5625 -2.8125 5.5625 -6.1875 6.6875 C-5.78066505 4.32785727 -5.28935661 2.82815912 -3.875 0.875 C-2.1875 -0.3125 -2.1875 -0.3125 0 0 Z " fill="#1D1D1D" transform="translate(524.1875,770.3125)"/>
<path d="M0 0 C1.98 0 3.96 0 6 0 C3.22719294 3.08089673 0.93673644 4.68775452 -3 6 C-2.67 5.01 -2.34 4.02 -2 3 C-1.34 3 -0.68 3 0 3 C0 2.01 0 1.02 0 0 Z " fill="#0ABDE3" transform="translate(724,549)"/>
<path d="M0 0 C1.65 0 3.3 0 5 0 C5 1.98 5 3.96 5 6 C3.2925002 4.71937515 1.62626404 3.38232443 0 2 C0 1.34 0 0.68 0 0 Z " fill="#0D97F5" transform="translate(611,522)"/>
<path d="M0 0 C0.99 0 1.98 0 3 0 C3 0.66 3 1.32 3 2 C3.639375 2.2475 4.27875 2.495 4.9375 2.75 C7 4 7 4 7.62890625 6.078125 C7.75136719 6.71234375 7.87382813 7.3465625 8 8 C6.85073734 7.04578192 5.70569459 6.08647955 4.5625 5.125 C3.92441406 4.59132813 3.28632812 4.05765625 2.62890625 3.5078125 C1 2 1 2 0 0 Z " fill="#0255D0" transform="translate(509,421)"/>
<path d="M0 0 C-3.1254959 2.64465038 -6.08788267 3.84414715 -10 5 C-10 4.34 -10 3.68 -10 3 C-6.58168085 0.4606772 -4.24223102 -0.3636198 0 0 Z " fill="#08C3E7" transform="translate(721,555)"/>
<path d="M0 0 C0.99 0.33 1.98 0.66 3 1 C1.92598892 3.91517292 1.22189824 5.77810176 -1 8 C-1.625 5.125 -1.625 5.125 -2 2 C-1.34 1.34 -0.68 0.68 0 0 Z " fill="#07C6E2" transform="translate(752,516)"/>
<path d="M0 0 C0.99 0.66 1.98 1.32 3 2 C2.54625 2.433125 2.0925 2.86625 1.625 3.3125 C-0.20024334 5.10798342 -0.20024334 5.10798342 -2 8 C-2.125 5.125 -2.125 5.125 -2 2 C-1.34 1.34 -0.68 0.68 0 0 Z " fill="#1A1A19" transform="translate(388,800)"/>
<path d="M0 0 C0.66 0.33 1.32 0.66 2 1 C0.02 3.31 -1.96 5.62 -4 8 C-4.66 7.67 -5.32 7.34 -6 7 C-4.02 4.69 -2.04 2.38 0 0 Z " fill="#D4D3D4" transform="translate(831,758)"/>
</svg>
